<?xml version="1.0" standalone="no"?>
<!DOCTYPE svg PUBLIC "-//W3C//DTD SVG 20010904//EN"
 "http://www.w3.org/TR/2001/REC-SVG-20010904/DTD/svg10.dtd">
<svg version="1.0" xmlns="http://www.w3.org/2000/svg"
 width="512.000000pt" height="512.000000pt" viewBox="0 0 512.000000 512.000000"
 preserveAspectRatio="xMidYMid meet">
<metadata>
Created by potrace 1.16, written by Peter Selinger 2001-2019
</metadata>
<g transform="translate(0.000000,512.000000) scale(0.100000,-0.100000)"
fill="#000000" stroke="none">
<path d="M759 5106 c-87 -31 -148 -86 -190 -172 l-24 -49 -3 -533 -3 -533 -37
8 c-122 26 -223 -26 -277 -142 -24 -50 -49 -213 -38 -244 20 -55 77 -68 118
-26 19 18 25 35 25 69 0 25 5 69 11 98 26 121 131 146 187 45 15 -29 17 -83
22 -577 5 -491 7 -549 22 -584 18 -38 66 -86 562 -564 173 -167 204 -192 231
-192 39 0 65 27 65 67 0 27 -24 54 -190 213 -203 196 -220 219 -206 295 9 48
68 112 116 126 81 24 90 19 365 -248 140 -135 261 -261 270 -278 13 -28 15
-102 15 -522 0 -268 -3 -498 -6 -511 l-6 -22 -240 0 -239 0 -24 -25 c-32 -31
-32 -59 0 -90 l24 -25 335 0 335 0 20 -26 c20 -25 21 -39 21 -246 0 -215 -5
-251 -34 -270 -6 -4 -73 -8 -149 -8 -133 0 -139 -1 -162 -25 -30 -29 -33 -75
-7 -98 16 -14 44 -17 181 -17 175 0 208 8 258 62 49 52 53 80 53 353 0 273 -4
301 -53 353 -32 34 -91 62 -132 62 l-35 0 0 255 0 255 660 0 c650 0 660 0 717
21 72 28 144 94 180 168 l28 56 3 318 c2 203 7 317 13 317 35 0 47 -21 54 -96
6 -62 12 -82 31 -100 22 -23 28 -24 199 -24 171 0 177 1 199 23 18 18 25 40
31 94 4 38 10 75 14 81 3 6 45 24 93 40 47 17 116 45 152 64 l65 35 33 -27
c59 -49 110 -80 131 -80 13 0 69 48 149 127 149 148 153 158 92 240 -47 63
-61 73 -100 73 -57 0 -84 -72 -45 -122 l20 -25 -62 -61 -62 -62 -69 50 c-38
28 -76 50 -85 50 -9 0 -49 -20 -90 -45 -77 -46 -208 -98 -278 -110 -58 -9 -75
-33 -87 -123 l-11 -77 -84 -3 c-57 -2 -87 1 -92 9 -4 7 -10 40 -14 75 -8 80
-30 110 -88 119 -69 12 -194 61 -277 110 -42 25 -84 45 -93 45 -9 0 -46 -23
-83 -51 l-66 -51 -63 62 -63 63 49 65 c53 71 59 99 30 140 -49 70 -117 235
-136 328 -3 18 -14 39 -25 49 -15 13 -107 34 -157 35 -10 0 -13 25 -13 89 l0
89 28 6 c15 2 50 8 77 11 65 9 82 25 96 94 15 76 62 190 110 271 21 36 39 76
39 87 0 11 -20 48 -45 82 -25 34 -45 65 -45 69 0 4 27 34 59 66 l59 59 62 -47
c69 -51 105 -58 148 -27 15 10 59 34 98 54 38 19 77 43 85 53 12 14 14 81 14
398 l0 381 -33 67 c-33 68 -80 116 -152 154 -34 18 -84 19 -1290 21 -1009 2
-1262 0 -1291 -11z m2508 -141 c48 -20 71 -41 94 -87 18 -34 19 -63 19 -367
l0 -329 -52 -31 -53 -30 -30 23 -30 24 -5 322 c-5 304 -6 322 -24 336 -17 12
-125 14 -671 14 l-652 0 -22 -24 c-18 -19 -21 -31 -16 -55 14 -63 -10 -61 647
-61 l598 0 0 -243 0 -242 -110 -110 c-60 -60 -114 -121 -120 -136 -14 -32 -7
-49 56 -129 l44 -56 -39 -74 c-22 -41 -52 -111 -66 -155 -15 -44 -32 -83 -38
-87 -6 -3 -41 -9 -79 -13 -44 -5 -77 -14 -93 -27 -25 -19 -25 -20 -25 -193 0
-216 -2 -212 121 -227 l86 -11 23 -76 c13 -42 43 -114 66 -160 l43 -84 -49
-62 c-80 -101 -82 -96 59 -238 l121 -123 0 -247 0 -247 -114 0 c-112 0 -115
-1 -135 -26 -28 -36 -26 -68 5 -93 24 -19 40 -21 179 -21 139 0 155 2 179 21
l26 20 1 317 0 317 30 24 30 23 54 -28 55 -29 0 -329 c0 -314 -1 -332 -21
-373 -15 -30 -35 -52 -67 -71 l-47 -27 -652 -3 -653 -3 0 71 0 70 204 0 c191
0 205 1 230 21 32 25 35 70 6 99 -19 19 -33 20 -229 20 l-208 0 -6 69 c-10
116 -27 139 -314 421 -292 286 -311 300 -428 300 -77 0 -148 -26 -197 -74 -15
-14 -30 -26 -33 -26 -3 0 -5 189 -5 420 0 407 -1 421 -20 440 -29 29 -74 26
-99 -6 -21 -26 -21 -37 -21 -467 l0 -441 -51 49 c-28 28 -57 62 -65 77 -12 23
-14 202 -14 1172 0 786 3 1154 11 1173 15 40 48 73 94 94 38 18 95 19 1238 19
1055 0 1202 -2 1234 -15z"/>
<path d="M845 4815 l-25 -24 0 -649 c0 -642 0 -650 21 -676 25 -32 70 -35 99
-6 20 20 20 33 20 630 l0 610 348 0 c383 0 384 0 397 61 5 24 2 36 -16 55
l-22 24 -399 0 -399 0 -24 -25z"/>
<path d="M1315 4396 c-45 -19 -83 -70 -90 -119 -4 -24 -5 -125 -3 -224 3 -198
6 -208 72 -257 25 -19 43 -21 239 -24 205 -2 213 -1 251 20 70 41 76 64 76
298 0 234 -6 257 -76 297 -37 21 -50 23 -239 22 -144 0 -209 -4 -230 -13z
m405 -306 l0 -180 -180 0 -180 0 0 180 0 180 180 0 180 0 0 -180z"/>
<path d="M2160 4340 c-24 -24 -26 -57 -4 -88 15 -22 15 -22 353 -22 315 0 339
1 354 18 22 25 21 75 -1 95 -17 15 -56 17 -350 17 -319 0 -333 -1 -352 -20z"/>
<path d="M2165 3916 c-32 -32 -32 -60 0 -91 24 -25 27 -25 200 -25 173 0 176
0 200 25 30 29 32 55 6 86 -19 23 -24 24 -200 27 l-181 3 -25 -25z"/>
<path d="M1301 3528 c-75 -51 -76 -54 -76 -298 l0 -218 31 -39 c45 -56 73 -62
288 -62 220 -1 255 8 294 78 21 36 22 52 22 240 0 225 -6 252 -61 292 -33 23
-40 24 -249 27 -211 3 -216 3 -249 -20z m419 -298 l0 -180 -180 0 -180 0 0
180 0 180 180 0 180 0 0 -180z"/>
<path d="M2160 3490 c-11 -11 -20 -31 -20 -45 0 -14 9 -34 20 -45 18 -18 33
-20 164 -20 138 0 146 1 160 22 22 31 20 64 -4 88 -18 18 -33 20 -160 20 -127
0 -142 -2 -160 -20z"/>
<path d="M2165 3065 c-14 -13 -25 -33 -25 -45 0 -11 11 -32 25 -45 23 -24 29
-25 153 -25 116 0 132 2 156 21 35 28 35 70 0 98 -24 19 -40 21 -156 21 -124
0 -130 -1 -153 -25z"/>
<path d="M2160 2640 c-11 -11 -20 -31 -20 -45 0 -14 9 -34 20 -45 18 -18 33
-20 179 -20 154 0 160 1 175 22 22 31 20 64 -4 88 -18 18 -33 20 -175 20 -142
0 -157 -2 -175 -20z"/>
<path d="M2165 2215 c-14 -13 -25 -33 -25 -45 0 -11 11 -32 25 -45 l24 -25
264 0 c252 0 266 1 291 21 17 13 26 30 26 49 0 19 -9 36 -26 49 -25 20 -39 21
-291 21 l-264 0 -24 -25z"/>
<path d="M3626 4445 c-23 -24 -29 -54 -16 -86 15 -36 25 -39 180 -42 l125 -2
11 -78 c6 -43 17 -84 25 -92 14 -14 155 -55 189 -55 27 0 60 43 60 78 0 36
-21 53 -87 73 -47 13 -49 16 -58 106 -4 39 -14 72 -27 88 l-19 25 -184 0
c-150 0 -186 -3 -199 -15z"/>
<path d="M4479 4205 c-19 -14 -40 -33 -46 -42 -37 -49 11 -121 71 -109 27 6
37 -1 88 -51 32 -32 58 -61 58 -65 0 -4 -20 -35 -45 -69 -25 -34 -45 -70 -45
-80 0 -11 20 -54 45 -97 49 -86 86 -178 105 -264 7 -32 20 -64 29 -73 9 -8 44
-17 76 -21 106 -12 105 -12 105 -104 0 -55 -4 -82 -12 -85 -7 -3 -44 -9 -82
-14 -44 -6 -76 -17 -87 -28 -9 -10 -27 -56 -39 -103 -35 -133 -35 -126 -5
-154 55 -51 102 -26 131 71 10 32 20 61 24 65 3 4 41 12 85 18 123 17 125 20
125 225 0 102 -4 174 -11 189 -14 29 -47 42 -137 51 -35 4 -65 12 -67 19 -23
83 -54 165 -85 225 l-39 74 50 65 c77 103 75 110 -74 259 -137 137 -154 145
-218 98z"/>
<path d="M3689 3906 c-262 -55 -481 -271 -535 -527 -37 -176 1 -379 100 -527
273 -411 877 -408 1147 5 71 109 100 204 106 343 6 140 -10 217 -69 340 -33
69 -57 101 -127 171 -96 95 -158 135 -275 174 -97 33 -247 42 -347 21z m281
-153 c189 -52 339 -210 385 -404 49 -211 -41 -439 -223 -563 -86 -59 -167 -87
-269 -94 -100 -6 -187 10 -270 49 l-63 30 0 459 0 460 48 24 c126 64 256 77
392 39z m-592 -680 l-3 -158 -33 63 c-86 166 -82 373 12 531 l21 36 3 -157 c1
-87 1 -229 0 -315z"/>
<path d="M181 3181 c-12 -12 -22 -40 -25 -73 -15 -128 -87 -1043 -84 -1066 7
-57 92 -76 124 -27 20 30 109 1110 95 1143 -10 22 -47 42 -77 42 -8 0 -23 -9
-33 -19z"/>
<path d="M86 1864 c-44 -44 -21 -116 72 -225 26 -31 84 -100 128 -155 45 -54
146 -178 225 -274 192 -233 179 -210 179 -302 l0 -78 -40 0 c-86 0 -170 -71
-189 -160 -14 -66 -14 -444 0 -511 13 -59 65 -124 116 -146 25 -10 122 -13
447 -13 l415 0 20 27 c25 31 20 58 -15 91 l-25 22 -390 0 c-376 0 -390 1 -409
20 -19 19 -20 33 -20 255 0 222 1 236 20 255 19 19 33 20 250 20 l231 0 25 26
c20 19 24 31 20 52 -13 54 -36 62 -176 62 l-127 0 -5 88 c-3 57 -12 104 -25
132 -11 25 -149 202 -308 395 -158 192 -294 364 -303 381 -23 50 -85 70 -116
38z"/>
</g>
</svg>
